<svg width="116" height="32" viewBox="0 0 116 32" fill="none" xmlns="http://www.w3.org/2000/svg">
<path d="M0.750488 20.334H2.13623C2.90609 22.5456 3.82992 24.4072 4.90771 25.9189C5.99951 27.4167 7.18229 28.5295 8.45605 29.2573C9.74382 29.9852 11.0876 30.3491 12.4873 30.3491C14.237 30.3491 15.7347 29.8032 16.9805 28.7114C18.2262 27.6196 18.8491 26.2199 18.8491 24.5122C18.8491 22.9165 18.4362 21.6777 17.6104 20.7959C16.7845 19.9001 15.7977 19.2772 14.6499 18.9272C13.5021 18.5633 11.9904 18.2274 10.1147 17.9194C8.2391 17.6115 6.90934 17.3245 6.12549 17.0586C4.90771 16.6387 3.87191 16.0648 3.01807 15.3369C2.16423 14.5951 1.51335 13.7132 1.06543 12.6914C0.63151 11.6556 0.414551 10.5498 0.414551 9.37402C0.414551 8.25423 0.610514 7.17643 1.00244 6.14062C1.39437 5.10482 1.94727 4.18799 2.66113 3.39014C3.375 2.59229 4.24284 1.9624 5.26465 1.50049C6.30046 1.03857 7.44824 0.807617 8.70801 0.807617C9.61784 0.807617 10.7306 0.940592 12.0464 1.20654C13.3761 1.4585 14.342 1.58447 14.9438 1.58447C15.6997 1.58447 16.4136 1.4165 17.0854 1.08057H18.6812L19.584 9.70996H18.1143C16.7425 7.13444 15.3008 5.1748 13.7891 3.83105C12.2913 2.47331 10.5277 1.79443 8.49805 1.79443C7.49023 1.79443 6.55241 2.03239 5.68457 2.5083C4.81673 2.97021 4.11686 3.6141 3.58496 4.43994C3.06706 5.26579 2.80811 6.17562 2.80811 7.16943C2.80811 8.56917 3.28402 9.63997 4.23584 10.3818C5.18766 11.1237 6.5944 11.6836 8.45605 12.0615C10.3317 12.4395 12.0044 12.7614 13.4741 13.0273C14.9578 13.2933 16.1336 13.6362 17.0015 14.0562C18.5972 14.84 19.8359 15.9248 20.7178 17.3105C21.5996 18.6963 22.0405 20.264 22.0405 22.0137C22.0405 23.6934 21.6346 25.2611 20.8228 26.7168C20.0109 28.1725 18.8701 29.3413 17.4004 30.2231C15.9307 31.091 14.293 31.5249 12.4873 31.5249C11.4655 31.5249 10.6956 31.4479 10.1777 31.2939C9.65983 31.14 8.771 30.839 7.51123 30.3911C6.25146 29.9432 5.28564 29.7192 4.61377 29.7192C3.49398 29.7192 2.60514 30.1462 1.94727 31H0.750488V20.334ZM17.2744 6.74951L16.5815 2.73926C16.1196 2.89323 15.6577 2.97021 15.1958 2.97021C14.6919 2.97021 14.146 2.89323 13.5581 2.73926C14.118 3.10319 14.6079 3.50911 15.0278 3.95703C15.4478 4.40495 15.8887 4.94385 16.3506 5.57373C16.8125 6.20361 17.1204 6.59554 17.2744 6.74951ZM1.44336 24.2393V29.8452C1.84928 29.3133 2.22021 28.9704 2.55615 28.8164C2.90609 28.6624 3.43799 28.5994 4.15186 28.6274C3.68994 28.0815 3.354 27.6826 3.14404 27.4307C2.94808 27.1647 2.69613 26.7798 2.38818 26.2759C2.09424 25.758 1.7793 25.0791 1.44336 24.2393ZM1.44336 6.91748C1.2054 7.98128 1.08643 8.84212 1.08643 9.5C1.08643 10.2419 1.2124 10.9907 1.46436 11.7466C1.71631 12.4884 2.08724 13.1953 2.57715 13.8672C3.06706 14.5251 3.61995 15.064 4.23584 15.4839C5.06169 16.0438 5.97152 16.4427 6.96533 16.6807C7.95915 16.9046 9.40788 17.1776 11.3115 17.4995C13.2292 17.8075 14.5519 18.1084 15.2798 18.4023C16.6235 18.8923 17.6663 19.6411 18.4082 20.6489C19.1641 21.6567 19.542 22.8395 19.542 24.1973C19.542 25.2051 19.255 26.2689 18.6812 27.3887C19.8289 26.1989 20.4028 24.8062 20.4028 23.2104C20.4028 21.5588 19.9759 20.264 19.1221 19.3262C18.2822 18.3743 17.2324 17.6745 15.9727 17.2266C14.7269 16.7646 13.0192 16.3447 10.8496 15.9668C8.68001 15.5749 7.56722 15.3719 7.51123 15.3579C5.5236 14.84 4.01188 13.9442 2.97607 12.6704C1.95426 11.3966 1.44336 9.92692 1.44336 8.26123C1.44336 7.95329 1.43636 7.69434 1.42236 7.48438C1.42236 7.27441 1.42936 7.08545 1.44336 6.91748ZM44.9683 25.835L42.6167 19.8301H32.6855L31.2998 23.3994C30.9359 24.3092 30.7539 25.2541 30.7539 26.2339C30.7539 27.1717 31.0479 27.9976 31.6357 28.7114C32.2376 29.4253 33.0705 29.8032 34.1343 29.8452V31H24.4131V29.8452C26.5827 29.5233 28.3324 27.6546 29.6621 24.2393L36.9268 5.63672C36.5488 4.97884 36.1499 4.53792 35.73 4.31396C35.3101 4.07601 34.6942 3.91504 33.8823 3.83105V2.80225L38.9214 1.08057H40.853L50.5742 25.877C51.1341 27.2767 51.694 28.2285 52.2539 28.7324C52.8138 29.2223 53.6676 29.5933 54.8154 29.8452V31H42.3438V29.8452C43.4215 29.7332 44.2264 29.5653 44.7583 29.3413C45.3042 29.1174 45.5771 28.6834 45.5771 28.0396C45.5771 27.4797 45.3742 26.7448 44.9683 25.835ZM33.1895 18.4863H42.0918L37.6196 7.16943L33.1895 18.4863ZM46.8789 25.0581L39.3833 6.05664C39.0194 5.10482 38.6414 4.43294 38.2495 4.04102C37.8576 3.63509 37.3187 3.43213 36.6328 3.43213C36.2269 3.43213 35.8979 3.46012 35.646 3.51611C36.3179 3.78206 36.8218 4.15299 37.1577 4.62891C37.5076 5.10482 37.8366 5.7417 38.1445 6.53955L45.5771 25.541C46.0391 26.6608 46.27 27.5356 46.27 28.1655C46.27 28.5715 46.193 28.8654 46.0391 29.0474C45.8851 29.2293 45.5771 29.4953 45.1152 29.8452H45.5771C46.235 29.8452 46.7389 29.6702 47.0889 29.3203C47.4528 28.9704 47.6348 28.5575 47.6348 28.0815C47.6348 27.3957 47.3828 26.3879 46.8789 25.0581ZM26.6597 29.8452H30.6909C29.8091 29.1593 29.3682 28.2985 29.3682 27.2627C29.3682 26.9688 29.3822 26.7378 29.4102 26.5698C29.0322 27.2697 28.6473 27.8646 28.2554 28.3545C27.8774 28.8444 27.3455 29.3413 26.6597 29.8452ZM98.9976 31H82.3477V29.8452C83.5234 29.8032 84.4053 29.6982 84.9932 29.5303C85.5811 29.3483 85.994 29.0194 86.2319 28.5435C86.4839 28.0675 86.6099 27.3677 86.6099 26.4438V5.32178C86.6099 4.28597 86.2739 3.5861 85.6021 3.22217C84.9302 2.85824 83.8454 2.62728 82.3477 2.5293V1.37451H99.6904C101.944 1.37451 104.016 1.74544 105.905 2.4873C107.809 3.22917 109.44 4.27897 110.797 5.63672C112.169 6.98047 113.226 8.57617 113.968 10.4238C114.71 12.2715 115.081 14.2591 115.081 16.3867C115.081 18.4723 114.696 20.411 113.926 22.2026C113.17 23.9803 112.078 25.527 110.65 26.8428C109.223 28.1585 107.508 29.1803 105.506 29.9082C103.519 30.6361 101.349 31 98.9976 31ZM88.6885 26.5698V7.16943C88.6885 5.50374 88.5345 4.33496 88.2266 3.66309C87.9186 2.97721 87.1208 2.62728 85.833 2.61328C86.4349 2.92122 86.8268 3.30615 87.0088 3.76807C87.2048 4.21598 87.3027 4.90885 87.3027 5.84668V26.0449C87.3027 26.9128 87.2537 27.5916 87.1558 28.0815C87.0578 28.5715 86.9108 28.9424 86.7148 29.1943C86.5189 29.4463 86.2249 29.6632 85.833 29.8452C86.8968 29.8452 87.6387 29.5933 88.0586 29.0894C88.4785 28.5715 88.6885 27.7316 88.6885 26.5698ZM91.9009 8.59717V25.541C91.9009 26.7588 91.9849 27.6476 92.1528 28.2075C92.3208 28.7534 92.7197 29.1663 93.3496 29.4463C93.9795 29.7122 95.0013 29.8452 96.415 29.8452C97.9408 29.8452 99.3055 29.6912 100.509 29.3833C101.713 29.0614 102.861 28.5085 103.953 27.7246C105.24 26.8008 106.248 25.807 106.976 24.7432C107.704 23.6654 108.229 22.4476 108.551 21.0898C108.887 19.7181 109.055 18.1924 109.055 16.5127C109.055 11.5156 107.592 7.77132 104.667 5.27979C103.505 4.28597 102.217 3.5791 100.803 3.15918C99.3895 2.73926 97.7238 2.5293 95.8062 2.5293C94.4904 2.5293 93.5596 2.72526 93.0137 3.11719C92.4818 3.49512 92.1598 4.04801 92.0479 4.77588C91.9499 5.48975 91.9009 6.76351 91.9009 8.59717ZM101.706 29.8452C103.498 29.6632 105.107 29.0474 106.535 27.9976C107.963 26.9478 109.09 25.457 109.916 23.5254C110.755 21.5938 111.175 19.2842 111.175 16.5967C111.175 14.665 110.972 12.9014 110.566 11.3057C110.174 9.70996 109.594 8.31722 108.824 7.12744C108.054 5.92367 107.116 4.96484 106.01 4.25098C105.366 3.81706 104.694 3.48812 103.995 3.26416C103.295 3.0402 102.532 2.85124 101.706 2.69727C107.067 4.81087 109.748 9.486 109.748 16.7227C109.748 18.8923 109.461 20.8169 108.887 22.4966C108.327 24.1763 107.445 25.632 106.241 26.8638C105.037 28.0815 103.526 29.0754 101.706 29.8452Z" fill="#567D78"/>
<path d="M62.2344 31.4482C61.1165 31.4482 60.1149 31.1882 59.2295 30.668C58.3441 30.1367 57.6523 29.4284 57.1543 28.543C56.6562 27.6576 56.4072 26.7334 56.4072 25.7705C56.4072 25.0622 56.529 24.4036 56.7725 23.7949C57.016 23.1751 57.3535 22.5941 57.7852 22.0518C58.2279 21.5094 58.8034 20.9118 59.5117 20.2588C60.4635 19.3512 61.4154 18.582 62.3672 17.9512C60.5521 15.9701 59.6445 14.415 59.6445 13.2861C59.6445 12.7438 59.8659 12.124 60.3086 11.4268C60.7513 10.7295 61.3268 10.0488 62.0352 9.38477C62.7435 8.70964 63.4906 8.16732 64.2764 7.75781C65.0732 7.33724 65.8092 7.12695 66.4844 7.12695C67.082 7.12695 67.6243 7.25423 68.1113 7.50879C68.5983 7.76335 69.0189 8.10091 69.373 8.52148C69.7272 8.94206 69.9984 9.38477 70.1865 9.84961C70.3857 10.3034 70.4854 10.724 70.4854 11.1113C70.4854 11.6868 70.2917 12.2458 69.9043 12.7881C69.528 13.3304 69.0908 13.8008 68.5928 14.1992C68.1058 14.5977 67.2757 15.234 66.1025 16.1084C67.4085 17.5583 68.5153 18.9085 69.4229 20.1592C70.3415 21.4098 71.1383 22.5553 71.8135 23.5957C72.6325 22.5332 73.2523 21.5924 73.6729 20.7734C74.0934 19.9434 74.3037 19.2738 74.3037 18.7646C74.3037 18.2223 74.0768 17.763 73.623 17.3867C73.1803 17.0104 72.5771 16.8223 71.8135 16.8223V15.9092H79.8154V16.8223C78.9964 16.9329 78.2217 17.3037 77.4912 17.9346C76.7718 18.5544 76.0524 19.3512 75.333 20.3252C74.6247 21.2992 73.6673 22.6826 72.4609 24.4756L73.4902 26.0361C74.1986 27.1097 74.752 27.8346 75.1504 28.2109C75.5488 28.5762 75.9915 28.7588 76.4785 28.7588C77.3418 28.7588 78.1331 28.0892 78.8525 26.75L79.666 27.1318C79.2565 28.1279 78.7972 28.9414 78.2881 29.5723C77.779 30.1921 77.2145 30.6624 76.5947 30.9834C75.986 31.2933 75.3441 31.4482 74.6689 31.4482C73.8057 31.4482 72.9479 31.1107 72.0957 30.4355C71.2546 29.7604 70.4909 28.8473 69.8047 27.6963C68.6426 28.8805 67.3809 29.8047 66.0195 30.4688C64.6693 31.1217 63.4076 31.4482 62.2344 31.4482ZM77.126 16.8223H73.6895C74.4642 17.1986 74.8516 17.835 74.8516 18.7314C74.8516 18.7979 74.835 18.8753 74.8018 18.9639C74.7796 19.0524 74.7686 19.1299 74.7686 19.1963C75.4105 18.1781 76.1963 17.3867 77.126 16.8223ZM67.9121 13.2197C68.3659 12.6885 68.5928 12.1462 68.5928 11.5928C68.5928 11.1169 68.4212 10.641 68.0781 10.165C67.7461 9.68913 67.3311 9.29069 66.833 8.96973C66.335 8.64876 65.8646 8.48828 65.4219 8.48828C65.1341 8.48828 64.7135 8.60449 64.1602 8.83691C64.8464 8.88118 65.4827 9.14681 66.0693 9.63379C66.6559 10.1097 67.1263 10.652 67.4805 11.2607C67.8346 11.8584 68.0117 12.3066 68.0117 12.6055C68.0117 12.7051 68.0062 12.777 67.9951 12.8213C67.984 12.8656 67.973 12.9154 67.9619 12.9707C67.9508 13.026 67.9342 13.109 67.9121 13.2197ZM65.4551 15.4277C66.7943 14.4538 67.4639 13.5905 67.4639 12.8379C67.4639 12.4616 67.2923 11.9912 66.9492 11.4268C66.6061 10.8623 66.18 10.3753 65.6709 9.96582C65.1729 9.54525 64.6969 9.33496 64.2432 9.33496C63.723 9.33496 63.2637 9.53971 62.8652 9.94922C62.4668 10.3587 62.2676 10.7682 62.2676 11.1777C62.2676 11.4876 62.3451 11.7975 62.5 12.1074C62.666 12.4173 62.9316 12.7826 63.2969 13.2031C63.6621 13.6126 64.0107 13.9779 64.3428 14.2988C64.6748 14.6198 65.0456 14.9961 65.4551 15.4277ZM77.4912 29.7383C76.8825 29.9928 76.3291 30.1201 75.8311 30.1201C74.9899 30.1201 74.2373 29.8766 73.5732 29.3896C72.9092 28.8916 72.3447 28.3216 71.8799 27.6797C71.415 27.0378 70.5352 25.776 69.2402 23.8945C68.2663 22.4779 67.3587 21.266 66.5176 20.2588C65.6875 19.2516 64.7301 18.1338 63.6455 16.9053C62.5719 15.6768 61.8359 14.7526 61.4375 14.1328C61.0391 13.502 60.8398 12.9043 60.8398 12.3398C60.8398 12.1074 60.9616 11.6868 61.2051 11.0781C60.5299 11.9193 60.1924 12.6663 60.1924 13.3193C60.1924 13.8506 60.3916 14.4206 60.79 15.0293C61.1885 15.638 61.9245 16.5622 62.998 17.8018C64.0716 19.0303 65.0234 20.1481 65.8535 21.1553C66.6947 22.1514 67.5579 23.3245 68.4434 24.6748C69.1185 25.682 69.694 26.5508 70.1699 27.2812C70.6569 28.0007 71.1328 28.6315 71.5977 29.1738C72.0625 29.7051 72.5605 30.1201 73.0918 30.4189C73.623 30.7178 74.193 30.8672 74.8018 30.8672C75.7314 30.8672 76.6279 30.4909 77.4912 29.7383ZM69.2402 26.8828C69.0078 26.5286 68.6149 25.9421 68.0615 25.123C67.5081 24.293 67.0156 23.5902 66.584 23.0146C66.1634 22.4281 65.6266 21.7363 64.9736 20.9395C64.3317 20.1315 63.6787 19.3844 63.0146 18.6982C61.93 19.6279 61.1442 20.4635 60.6572 21.2051C60.1813 21.9466 59.9434 22.7546 59.9434 23.6289C59.9434 24.5143 60.1813 25.3721 60.6572 26.2021C61.1442 27.0322 61.7861 27.7074 62.583 28.2275C63.3799 28.7367 64.2155 28.9912 65.0898 28.9912C66.6172 28.9912 68.0007 28.2884 69.2402 26.8828ZM63.5625 30.7676C61.8691 30.5462 60.4967 29.9043 59.4453 28.8418C58.4049 27.7793 57.8848 26.4678 57.8848 24.9072C57.8848 24.2764 57.9512 23.7728 58.084 23.3965C58.2279 23.0091 58.488 22.4391 58.8643 21.6865C58.2555 22.3174 57.7852 22.9427 57.4531 23.5625C57.1211 24.1712 56.9551 24.8962 56.9551 25.7373C56.9551 26.7113 57.2041 27.5911 57.7021 28.377C58.2113 29.1628 58.8698 29.777 59.6777 30.2197C60.4857 30.6514 61.3158 30.8672 62.168 30.8672C62.5553 30.8672 63.0202 30.834 63.5625 30.7676Z" fill="#BA8E48"/>
</svg>
